<svg xmlns="http://www.w3.org/2000/svg" viewBox="0 0 102.9 91.8"><title>&#x8D44;&#x6E90; 229</title><path d="M51.48 91.8L0 .26C1.28.17 2.12.06 3 .05 8.55 0 14.13.16 19.71 0a4.24 4.24 0 0 1 4.34 2.51q14.31 25.62 28.73 51.17c3 5.37 6 10.75 9.08 16.09a3.2 3.2 0 0 1 0 3.67c-3 5.1-5.81 10.29-8.7 15.45-.4.77-.87 1.53-1.68 2.91zM68.81 61.12L34.6.3c1.22-.12 1.92-.25 2.62-.25C43 0 48.87.11 54.69 0a3.7 3.7 0 0 1 3.73 2.21c6.88 12.36 13.85 24.65 20.73 37a3.43 3.43 0 0 1 .32 2.79c-3.33 6.17-6.83 12.29-10.66 19.12z" fill="#1dac92"/><path d="M102.9.34c-1.32 2.43-2.4 4.47-3.52 6.48-2.24 4-4.47 8-6.77 11.93a6.73 6.73 0 0 1-6.81 3.7 6.37 6.37 0 0 1-5.7-4.56c-1-3-.44-5.82 2.09-7.64a60.12 60.12 0 0 1 8-4.32 17.22 17.22 0 0 1 2.48-.84l-.08-.8a23.49 23.49 0 0 0-4.52 0c-3.82.77-6.64 3.25-9.35 5.9-.69.67-2 1.51-2.59 1.27S74.83 9.91 74.64 9C73.82 4.89 76.09.69 80 .47 87.38 0 94.85.34 102.9.34z" fill="#93c13d"/></svg>